<?xml version="1.0" encoding="UTF-8"?>
<svg id="Layer_1" data-name="Layer 1" xmlns="http://www.w3.org/2000/svg" viewBox="0 0 378 349.71">
  <defs>
    <style>
      .cls-1 {
        fill: #80886c;
      }
    </style>
  </defs>
  <path class="cls-1" d="M374.35,120.88c-10.96-3.03-26.36,4.17-34.69,11.28l-11.91,10.18-11.32,12.91c-3.26,3.99-6.31,8.05-9.24,12.18-11.75,16.5-29.95,27.59-50.14,29.27-10.49.86-21.18-.11-31.98-3.05-11.68-3.19-22.14-8.62-30.99-16.75-4.73-4.34-10.16-12.31-12.43-18.66,32.99,4.27,67.48-8.66,94.12-27.58,28.34-20.13,57.63-51.64,68.23-85.07,4.46-14.05,3.02-29.21-10.08-37.35-7.17-4.46-15.27-6.94-23.95-7.76-31.93-3-57.39,8.05-81.87,27.94-20.48,16.65-36.96,37.42-48.79,60.98-8.87,18.29-15.08,37.92-11.42,58.61-9.28-2.33-17.29-6.22-24.65-11.75-14.57-10.94-20.74-29.15-18.32-47.32,3.21-24.08,15.62-47.79,32.7-65.1,8.47-8.27,18.23-14.13,29.85-16.93.23-.1.63-1.11.34-1.27l-1.01-.56c-8.14-.31-15.55,1.95-22.92,5.56-11.94,6.74-22.15,15.5-31.12,25.91-6.41,7.44-11.13,15.78-14.94,24.85-6.79,16.21-8.34,36.58-1.81,52.81,3.6,8.95,8.57,16.52,15.7,23.06,10.37,9.74,24.12,16.26,38.23,19.23,11.16,32.29,42.97,49.05,76.32,48.1,15.05-.43,29.04-3.65,43.12-10.1l-9.58,17.15-3.36,6.08-10.5,18.95-5.14,8.91-15.61,26.69c-4.25,6.53-8.58,12.79-13.76,18.9-23.17,27.35-56.44,45.04-92.18,49-20.52,2.28-43.92-1.48-60.72-13.24-16.89-11.83-25.49-32.22-22.98-52.55,1.03-8.4,2.89-16.18,6.06-23.85l3.36-8.13c9.03,3.69,16.81,7.93,24.91,12.88,6.63,4.05,13.38,7.29,21.17,8.39,12.01,1.69,23.71-2,33.4-9.04,12.5-9.09,20.21-25.11,18.17-40.44-2.34-17.65-19.48-27.3-37.03-27.1-11.39.13-22.07,3.84-32.08,9.46-14.35,8.04-24.89,19.64-34.1,33.25-18.6-2.91-36.72-.66-50.98,11.97-6.03,6.16-10.27,14.47-7.55,22.59.81,2.43,2.89,4.18,5.49,3.36.22-.97.27-2.5.16-3.57-.48-4.53,1.15-8.55,3.62-12.29,9.13-14.16,28.04-17.06,44.32-13.17-3.36,7.61-6.31,15.02-7.92,23.01,0,0-3.37,14.86-1.25,29.78.14,1.01.3,1.71.46,2.16,4.63,21.75,20.68,38.7,40.88,47.44l12.95,4.65c17.75,4.82,35.79,5.24,53.83,1.29,27.13-5.94,51.98-18.82,72.56-37.31l6.86-6.59,11.6-12.66,12.04-16.53,13.94-20.5s23.99-35.29,32.36-48.8l15.3-24.71c8.37-13.51,17.71-26,28.1-37.96,8.1-9.32,19.27-18.28,31.78-16.25.45-2.6-1.25-4.16-3.58-4.8v-.04ZM180.41,117.89l4.95-13.72c6.81-15.55,15.88-29.73,26.48-42.95l4.89-5.69c13.3-15.47,32.78-31.79,51.7-39.73,16.98-7.12,33.55-11.27,51.61-6.49,9.45,2.5,15.65,9.17,14.44,19.15-1.27,10.33-10.61,25.6-17.13,34.36l-11.1,14.9-13.36,15.19c-11.34,11.85-23.12,22.82-36.29,32.57l-14.07,9.3c-13.27,7.97-27.76,13.26-43.24,15.02-6.98.79-13.55,1.28-20.42.12-2.27-10.92-1.43-21.63,1.55-32.04h0ZM118.69,194.79c11.12-2.37,24.62-.48,31.49,8.57,3.23,4.25,4.08,9.75,3.53,15-1.42,13.39-9.56,24.42-21.58,30.65-13.85,7.18-27.7,1.75-40.2-5.77-6.78-4.08-13.39-7.78-21.38-10.31,10.45-16.53,28.48-33.96,48.14-38.15h.01Z"/>
</svg>