<?xml version="1.0" encoding="UTF-8"?>
<svg id="Layer_1" data-name="Layer 1" xmlns="http://www.w3.org/2000/svg" viewBox="0 0 532.8 108.43">
  <g>
    <path d="M49.01,27.75c-1.76,0-3.07.27-3.93.8s-1.41,1.54-1.67,3.03c-.25,1.48-.38,3.69-.38,6.61v8.63c-2.13,1.35-4.83,2.53-8.1,3.55s-6.69,1.53-10.26,1.53c-3.76,0-7.15-.65-10.19-1.95s-5.63-3.08-7.79-5.36c-2.16-2.27-3.81-4.93-4.97-7.96-1.16-3.04-1.74-6.3-1.74-9.77,0-4.64.96-8.83,2.89-12.59,1.92-3.76,4.7-6.76,8.31-9.01,3.62-2.25,7.98-3.37,13.08-3.37,2.37,0,4.68.23,6.96.7,2.27.46,4.31,1.02,6.12,1.67s3.15,1.28,4.04,1.88v8.9l-.77-.14c-.37-2.64-1.37-4.8-2.99-6.47s-3.61-2.91-5.95-3.72-4.81-1.22-7.41-1.22c-4.08,0-7.48,1.01-10.19,3.03s-4.73,4.79-6.05,8.31-1.98,7.54-1.98,12.03.71,8.52,2.12,12.07c1.41,3.55,3.51,6.33,6.29,8.35,2.78,2.02,6.19,3.03,10.23,3.03,3.38,0,6.16-.48,8.31-1.43,2.16-.95,3.88-2.42,5.18-4.42v-5.43c0-2.5-.05-4.51-.14-6.02-.09-1.51-.32-2.64-.7-3.41s-.95-1.26-1.74-1.5c-.79-.23-1.9-.35-3.34-.35l-.14-.7h17.03l-.14.7Z"/>
    <path d="M79.56,33.6h-22.81v1.18c0,3.48.51,6.33,1.53,8.56s2.37,3.87,4.03,4.94c1.67,1.07,3.46,1.6,5.36,1.6s3.84-.43,5.67-1.29c1.83-.86,3.28-2.28,4.35-4.28l1.04.56c-1.3,2.55-3.03,4.36-5.18,5.43-2.16,1.07-4.46,1.6-6.92,1.6-2.6,0-5.06-.64-7.37-1.91-2.32-1.27-4.2-3.19-5.63-5.74-1.44-2.55-2.16-5.7-2.16-9.46,0-3.15.58-6.03,1.74-8.63s2.82-4.67,4.97-6.23c2.16-1.55,4.77-2.33,7.83-2.33s5.52.72,7.51,2.16,3.5,3.36,4.52,5.77,1.53,5.1,1.53,8.07h0ZM66.08,18.99c-2.83,0-4.99,1.21-6.47,3.62-1.48,2.41-2.39,5.4-2.71,8.97h17.31c-.14-3.8-.83-6.85-2.09-9.15s-3.27-3.44-6.05-3.44Z"/>
    <path d="M98.32,17.6c3.34,0,6.2.78,8.59,2.33s4.22,3.63,5.5,6.23c1.28,2.6,1.91,5.47,1.91,8.63s-.62,5.96-1.84,8.56c-1.23,2.6-3,4.67-5.32,6.23-2.32,1.55-5.12,2.33-8.42,2.33s-6.06-.78-8.45-2.33-4.22-3.63-5.5-6.23c-1.28-2.6-1.91-5.45-1.91-8.56s.6-6.03,1.81-8.63,2.97-4.67,5.29-6.23c2.32-1.55,5.1-2.33,8.35-2.33h0ZM98.74,50.49c2.37,0,4.31-.71,5.84-2.12,1.53-1.41,2.65-3.31,3.37-5.7s1.08-5.02,1.08-7.9-.39-5.58-1.18-7.96c-.79-2.39-1.97-4.29-3.55-5.7s-3.55-2.12-5.91-2.12-4.24.71-5.77,2.12c-1.53,1.42-2.66,3.32-3.37,5.7-.72,2.39-1.08,5.04-1.08,7.96s.39,5.51,1.18,7.9,1.97,4.29,3.55,5.7c1.58,1.42,3.52,2.12,5.84,2.12h0Z"/>
    <path d="M136.52,17.25c1.07,0,2.06.24,2.99.73.93.49,1.39,1.19,1.39,2.12s-.3,1.63-.9,2.12c-.6.49-1.23.73-1.88.73-.7,0-1.29-.15-1.77-.45-.49-.3-1.02-.6-1.6-.9-.58-.3-1.4-.45-2.47-.45-1.25,0-2.34.8-3.27,2.4-.93,1.6-1.63,3.68-2.12,6.23s-.73,5.22-.73,8c0,2.92.06,5.24.17,6.96.12,1.72.36,2.97.73,3.76s.95,1.3,1.74,1.53,1.88.35,3.27.35l.14.83h-16.89l.14-.83c1.34,0,2.41-.12,3.2-.35.79-.23,1.37-.74,1.74-1.53s.61-2.04.73-3.76.17-4.03.17-6.96v-4.03c0-3.38-.06-6.06-.17-8.03-.12-1.97-.39-3.42-.83-4.35-.44-.93-1.11-1.52-2.02-1.77-.9-.25-2.15-.38-3.72-.38l-.14-.77c2.32-.28,4.37-.49,6.16-.63s3.65-.21,5.6-.21v10.23c.51-3.29,1.66-5.88,3.44-7.76,1.79-1.88,4.09-2.82,6.92-2.82h0Z"/>
    <path d="M167.63,29.49c0,2.27-.58,4.35-1.74,6.23-1.16,1.88-2.71,3.37-4.66,4.49-1.95,1.11-4.13,1.67-6.54,1.67-2.55,0-4.82-.6-6.82-1.81-1.02.93-1.76,1.87-2.23,2.82-.46.95-.7,1.89-.7,2.82,0,1.3.5,2.37,1.5,3.2s2.33,1.25,4,1.25c2.97,0,5.74.06,8.31.17,2.57.12,4.82.43,6.75.94,1.92.51,3.43,1.33,4.52,2.47s1.63,2.72,1.63,4.77-.76,4.08-2.3,5.98c-1.53,1.9-3.68,3.45-6.43,4.66-2.76,1.21-6.04,1.81-9.84,1.81-4.17,0-7.56-.78-10.16-2.33s-3.9-3.61-3.9-6.16c0-1.76.59-3.48,1.77-5.15s2.75-2.81,4.7-3.41c-1.44-.6-2.47-1.47-3.1-2.61s-.94-2.35-.94-3.65c0-1.53.5-3.06,1.5-4.59s2.24-2.78,3.72-3.76c-1.49-1.16-2.68-2.58-3.58-4.28-.9-1.69-1.36-3.54-1.36-5.53,0-2.32.58-4.37,1.74-6.16,1.16-1.78,2.72-3.19,4.7-4.21,1.97-1.02,4.14-1.53,6.5-1.53,1.76,0,3.42.29,4.97.87s2.91,1.38,4.07,2.4c.6-.6,1.04-1.28,1.32-2.02s.42-1.41.42-2.02-.07-1.22-.21-1.84c-.14-.63-.21-1.19-.21-1.7,0-.93.28-1.63.83-2.12s1.16-.73,1.81-.73,1.25.24,1.81.73.83,1.19.83,2.12c0,1.35-.57,2.78-1.7,4.31-1.14,1.53-2.49,2.9-4.07,4.1.93,1.02,1.67,2.19,2.23,3.51.56,1.32.83,2.75.83,4.28h.03ZM147.54,54.32c-.74.46-1.53,1.38-2.37,2.75-.83,1.37-1.25,2.93-1.25,4.7,0,2.27.92,4.11,2.75,5.53,1.83,1.41,4.23,2.12,7.2,2.12,2.32,0,4.45-.42,6.4-1.25s3.52-1.95,4.73-3.34c1.21-1.39,1.81-2.95,1.81-4.66s-.56-2.92-1.67-3.76c-1.11-.83-3.06-1.39-5.84-1.67s-6.7-.42-11.76-.42ZM154.69,40.07c2.64,0,4.61-1.02,5.91-3.06s1.95-4.54,1.95-7.51-.65-5.4-1.95-7.3c-1.3-1.9-3.27-2.85-5.91-2.85s-4.61.95-5.91,2.85c-1.3,1.9-1.95,4.34-1.95,7.3s.65,5.47,1.95,7.51,3.27,3.06,5.91,3.06Z"/>
    <path d="M199.66,33.6h-22.81v1.18c0,3.48.51,6.33,1.53,8.56s2.37,3.87,4.03,4.94c1.67,1.07,3.46,1.6,5.36,1.6s3.84-.43,5.67-1.29c1.83-.86,3.28-2.28,4.35-4.28l1.04.56c-1.3,2.55-3.03,4.36-5.18,5.43-2.16,1.07-4.46,1.6-6.92,1.6-2.6,0-5.06-.64-7.37-1.91-2.32-1.27-4.2-3.19-5.63-5.74-1.44-2.55-2.16-5.7-2.16-9.46,0-3.15.58-6.03,1.74-8.63s2.82-4.67,4.97-6.23c2.16-1.55,4.77-2.33,7.83-2.33s5.52.72,7.51,2.16,3.5,3.36,4.52,5.77,1.53,5.1,1.53,8.07h0ZM186.17,18.99c-2.83,0-4.99,1.21-6.47,3.62-1.48,2.41-2.39,5.4-2.71,8.97h17.31c-.14-3.8-.83-6.85-2.09-9.15s-3.27-3.44-6.05-3.44Z"/>
    <path d="M210.4,9.75v8.56h8.56v1.53h-8.56v26.49c0,1.02.23,1.81.7,2.36.46.56,1.07.83,1.81.83.93,0,1.85-.13,2.78-.38.93-.25,1.97-.61,3.13-1.08l.14.77c-1.3.83-2.67,1.55-4.1,2.16-1.44.6-2.95.9-4.52.9s-2.71-.37-3.55-1.11c-.83-.74-1.25-2.13-1.25-4.17v-26.77h-4.17v-1.53c1.85,0,3.27-.38,4.24-1.15s1.69-1.8,2.16-3.1c.46-1.3.83-2.69,1.11-4.17l1.53-.14h-.01Z"/>
    <path d="M228.26,9.75v8.56h8.56v1.53h-8.56v26.49c0,1.02.23,1.81.7,2.36.46.56,1.07.83,1.81.83.93,0,1.85-.13,2.78-.38.93-.25,1.97-.61,3.13-1.08l.14.77c-1.3.83-2.67,1.55-4.1,2.16-1.44.6-2.95.9-4.52.9s-2.71-.37-3.55-1.11-1.25-2.13-1.25-4.17v-26.77h-4.17v-1.53c1.85,0,3.27-.38,4.24-1.15s1.69-1.8,2.16-3.1c.46-1.3.83-2.69,1.11-4.17l1.53-.14h-.01Z"/>
    <path d="M264.97,33.6h-22.81v1.18c0,3.48.51,6.33,1.53,8.56s2.37,3.87,4.03,4.94c1.67,1.07,3.46,1.6,5.36,1.6s3.84-.43,5.67-1.29c1.83-.86,3.28-2.28,4.35-4.28l1.04.56c-1.3,2.55-3.03,4.36-5.18,5.43-2.16,1.07-4.46,1.6-6.92,1.6-2.6,0-5.06-.64-7.37-1.91-2.32-1.27-4.2-3.19-5.63-5.74-1.44-2.55-2.16-5.7-2.16-9.46,0-3.15.58-6.03,1.74-8.63s2.82-4.67,4.97-6.23c2.16-1.55,4.77-2.33,7.83-2.33s5.52.72,7.51,2.16,3.5,3.36,4.52,5.77,1.53,5.1,1.53,8.07h0ZM251.48,18.99c-2.83,0-4.99,1.21-6.47,3.62-1.48,2.41-2.39,5.4-2.71,8.97h17.31c-.14-3.8-.83-6.85-2.09-9.15s-3.27-3.44-6.05-3.44Z"/>
    <path d="M323.24,50.35l.14.83h-9.67c-1.25,0-2.41-.57-3.48-1.7-1.07-1.14-2.1-2.62-3.1-4.45s-2.04-3.77-3.13-5.81-2.29-3.98-3.62-5.81c-1.32-1.83-2.83-3.36-4.52-4.59s-3.68-1.89-5.95-1.98v8.63c0,3.39.07,6.08.21,8.07.14,1.99.44,3.48.9,4.45s1.15,1.61,2.05,1.91c.9.3,2.14.45,3.72.45l.14.83h-18.63l.14-.83c1.58,0,2.82-.15,3.72-.45.9-.3,1.57-.94,1.98-1.91.42-.97.68-2.46.8-4.45.12-1.99.17-4.68.17-8.07v-17.59c0-3.38-.06-6.05-.17-8-.12-1.95-.38-3.38-.8-4.31s-1.08-1.53-1.98-1.81c-.9-.28-2.15-.42-3.72-.42l-.14-.83h16.13c1.99,0,4.01.15,6.05.45s3.93.87,5.67,1.7,3.14,2.03,4.21,3.58,1.6,3.58,1.6,6.09c0,2.37-.58,4.44-1.74,6.23s-2.67,3.22-4.52,4.31c-1.86,1.09-3.85,1.75-5.98,1.98,1.81,1.07,3.36,2.38,4.66,3.93,1.3,1.55,2.46,3.21,3.48,4.97,1.02,1.76,2.02,3.5,2.99,5.22s2.02,3.28,3.13,4.7,2.41,2.55,3.9,3.41c1.48.86,3.27,1.29,5.36,1.29h0ZM289.94,4.11v21.35h4.38c2.18,0,4.2-.37,6.05-1.11s3.35-1.91,4.49-3.51c1.14-1.6,1.7-3.72,1.7-6.36,0-3.48-1.05-6.07-3.17-7.79-2.11-1.72-5.09-2.57-8.94-2.57h-4.52v-.02Z"/>
    <path d="M348.13,33.6h-22.81v1.18c0,3.48.51,6.33,1.53,8.56s2.37,3.87,4.03,4.94c1.67,1.07,3.46,1.6,5.36,1.6s3.84-.43,5.67-1.29c1.83-.86,3.28-2.28,4.35-4.28l1.04.56c-1.3,2.55-3.03,4.36-5.18,5.43-2.16,1.07-4.46,1.6-6.92,1.6-2.6,0-5.06-.64-7.37-1.91-2.32-1.27-4.2-3.19-5.63-5.74-1.44-2.55-2.16-5.7-2.16-9.46,0-3.15.58-6.03,1.74-8.63s2.82-4.67,4.97-6.23c2.16-1.55,4.77-2.33,7.83-2.33s5.52.72,7.51,2.16,3.5,3.36,4.52,5.77,1.53,5.1,1.53,8.07h0ZM334.64,18.99c-2.83,0-4.99,1.21-6.47,3.62-1.48,2.41-2.39,5.4-2.71,8.97h17.31c-.14-3.8-.83-6.85-2.09-9.15-1.25-2.3-3.27-3.44-6.05-3.44Z"/>
    <path d="M354.85,65.79c2.46,0,4.45-.95,5.98-2.85,1.53-1.9,3.06-4.73,4.59-8.49l-10.37-26.15c-1.11-2.83-2.13-4.89-3.06-6.19s-1.83-2.12-2.71-2.47-1.81-.52-2.78-.52l-.14-.83h17.24l-.14.83c-1.67,0-2.81.27-3.41.8s-.9,1.31-.9,2.33c0,1.25.3,2.85.9,4.8.6,1.95,1.39,4.15,2.37,6.61l5.36,13.5,5.43-16.68c.65-1.95,1.08-3.51,1.29-4.7.21-1.18.31-2.14.31-2.89,0-1.11-.35-2.02-1.04-2.71-.7-.7-1.97-1.04-3.83-1.04l-.14-.83h13.08l-.14.83c-.97,0-1.76.12-2.37.35-.6.23-1.16.77-1.67,1.6s-1.09,2.15-1.74,3.93c-.65,1.79-1.48,4.23-2.5,7.34l-6.26,19.05c-2.04,6.26-4.43,11.08-7.17,14.46-2.74,3.38-5.59,5.08-8.56,5.08-1.25,0-2.34-.26-3.27-.77-.93-.51-1.39-1.28-1.39-2.3s.31-1.77.94-2.26c.63-.49,1.22-.73,1.77-.73,1.02,0,1.79.15,2.3.45s1.18.45,2.02.45h0Z"/>
    <path d="M396.16,17.6v12.45c.28-1.95.85-3.88,1.7-5.81.86-1.92,2.06-3.51,3.62-4.77,1.55-1.25,3.47-1.88,5.74-1.88,3.57,0,6.24.96,8,2.89,1.76,1.92,2.64,4.67,2.64,8.24v10.99c0,3.15.12,5.5.35,7.03s.77,2.52,1.6,2.96c.83.44,2.16.66,3.96.66l.14.83h-16.89l.14-.83c1.44,0,2.55-.12,3.34-.35.79-.23,1.36-.72,1.71-1.46.35-.74.57-1.87.66-3.37.09-1.51.14-3.54.14-6.09v-9.67c0-3.01-.46-5.38-1.39-7.1-.93-1.71-2.67-2.57-5.22-2.57-1.62,0-3.03.49-4.21,1.46s-2.16,2.24-2.92,3.79c-.76,1.55-1.38,3.23-1.84,5.04s-.79,3.56-.97,5.25c-.19,1.69-.28,3.17-.28,4.42,0,2.41.04,4.33.14,5.74.09,1.42.32,2.47.7,3.17.37.7.95,1.16,1.74,1.39s1.88.35,3.27.35l.14.83h-16.96l.14-.83c1.44,0,2.56-.12,3.37-.35.81-.23,1.4-.71,1.77-1.43.37-.72.6-1.8.7-3.23.09-1.44.14-3.36.14-5.77v-5.56c0-3.38-.06-6.07-.17-8.07-.12-1.99-.41-3.48-.87-4.45s-1.15-1.61-2.05-1.91c-.9-.3-2.17-.45-3.79-.45l-.14-.77c2.37-.28,4.45-.48,6.26-.59,1.81-.12,3.69-.17,5.63-.17h-.02Z"/>
    <path d="M439.43,17.6c3.34,0,6.2.78,8.59,2.33s4.22,3.63,5.5,6.23c1.28,2.6,1.91,5.47,1.91,8.63s-.62,5.96-1.84,8.56c-1.23,2.6-3,4.67-5.32,6.23-2.32,1.55-5.12,2.33-8.42,2.33s-6.06-.78-8.45-2.33-4.22-3.63-5.5-6.23c-1.28-2.6-1.91-5.45-1.91-8.56s.6-6.03,1.81-8.63c1.21-2.6,2.97-4.67,5.29-6.23,2.32-1.55,5.1-2.33,8.35-2.33h0ZM439.84,50.49c2.37,0,4.31-.71,5.84-2.12,1.53-1.41,2.65-3.31,3.37-5.7s1.08-5.02,1.08-7.9-.39-5.58-1.18-7.96c-.79-2.39-1.97-4.29-3.55-5.7s-3.55-2.12-5.91-2.12-4.24.71-5.77,2.12c-1.53,1.42-2.66,3.32-3.37,5.7-.72,2.39-1.08,5.04-1.08,7.96s.39,5.51,1.18,7.9,1.97,4.29,3.55,5.7c1.58,1.42,3.52,2.12,5.84,2.12h0Z"/>
    <path d="M466.6.01v39.08c0,2.55.05,4.58.14,6.09s.34,2.63.73,3.37c.39.74.98,1.23,1.77,1.46.79.23,1.88.35,3.27.35l.14.83h-17.03l.14-.83c1.44,0,2.56-.12,3.37-.35.81-.23,1.4-.72,1.77-1.46s.6-1.87.7-3.37c.09-1.51.14-3.54.14-6.09V12.53c0-2.5-.05-4.5-.14-5.98s-.33-2.57-.7-3.27-.96-1.15-1.77-1.36-1.94-.31-3.37-.31l-.14-.77c2.04-.28,3.91-.49,5.6-.63s3.49-.21,5.39-.21h0Z"/>
    <path d="M496.5,43.46c-.42,1.44-1.08,2.79-1.98,4.07-.9,1.28-2.08,2.32-3.51,3.13-1.44.81-3.2,1.22-5.29,1.22-2.37,0-4.37-.51-6.02-1.53s-2.96-2.35-3.93-4-1.68-3.44-2.12-5.39-.66-3.85-.66-5.7c0-3.25.7-6.2,2.09-8.87s3.38-4.8,5.98-6.4c2.6-1.6,5.7-2.4,9.32-2.4,1.3,0,2.47.08,3.51.24,1.04.16,1.98.36,2.82.59v-6.61c0-2.37-.05-4.23-.14-5.6-.09-1.37-.33-2.38-.7-3.03s-.95-1.07-1.74-1.25-1.88-.28-3.27-.28l-.14-.77c1.99-.28,3.81-.49,5.46-.63s3.44-.21,5.39-.21v35.68c0,3.29.06,5.84.17,7.65.12,1.81.38,3.07.8,3.79.42.72,1.04,1.08,1.88,1.08.6,0,1.16-.1,1.67-.31.51-.21,1-.43,1.46-.66l.35.7c-1.86,1.16-3.58,2.04-5.18,2.64s-3.37.9-5.32.9c-.19-.88-.38-1.97-.59-3.27s-.31-2.9-.31-4.8h0ZM486.77,49.73c1.9,0,3.49-.58,4.77-1.74,1.27-1.16,2.28-2.62,3.03-4.38.74-1.76,1.29-3.62,1.63-5.56s.52-3.71.52-5.29v-10.64c-1.99-1.58-4.29-2.37-6.89-2.37-2.23,0-4.09.51-5.6,1.53-1.51,1.02-2.69,2.33-3.55,3.93-.86,1.6-1.47,3.29-1.84,5.08-.37,1.79-.56,3.44-.56,4.97,0,1.44.13,3,.38,4.7.25,1.69.68,3.27,1.29,4.73.6,1.46,1.46,2.67,2.57,3.62s2.53,1.43,4.24,1.43h0Z"/>
    <path d="M520.34,49.86c2.27,0,4.1-.51,5.5-1.53,1.39-1.02,2.09-2.43,2.09-4.24,0-1.53-.42-2.76-1.25-3.69-.83-.93-1.9-1.72-3.2-2.37-1.3-.65-2.68-1.27-4.14-1.88-1.46-.6-2.84-1.29-4.14-2.05-1.3-.77-2.37-1.76-3.2-2.99-.83-1.23-1.25-2.79-1.25-4.7s.52-3.51,1.57-4.83c1.04-1.32,2.39-2.32,4.03-2.99,1.65-.67,3.35-1.01,5.11-1.01s3.42.19,5.25.56,3.23.83,4.21,1.39c0,1.48-.09,3.04-.28,4.66-.19,1.62-.37,3.04-.56,4.24l-.83-.21c0-2.18-.35-3.91-1.04-5.18-.7-1.27-1.61-2.19-2.75-2.75s-2.35-.83-3.65-.83c-1.62,0-3.06.49-4.31,1.46s-1.88,2.48-1.88,4.52c0,1.39.42,2.53,1.25,3.41.83.88,1.9,1.63,3.2,2.26,1.3.63,2.68,1.24,4.14,1.84,1.46.6,2.84,1.3,4.14,2.09s2.37,1.77,3.2,2.96c.83,1.18,1.25,2.7,1.25,4.56,0,2.09-.56,3.82-1.67,5.18-1.11,1.37-2.59,2.4-4.42,3.1-1.83.7-3.79,1.04-5.88,1.04-1.72,0-3.51-.24-5.39-.73-1.88-.49-3.49-1.24-4.83-2.26,0-1.48.07-2.93.21-4.35.14-1.41.3-2.7.49-3.86l.83.14c0,2.18.42,3.93,1.25,5.25s1.88,2.28,3.13,2.89c1.25.6,2.53.9,3.83.9h0Z"/>
  </g>
  <g>
    <path d="M154.64,108.17h-3.09v-.4c.33-.15.67-.26,1-.33l3.53-9.18h.4l3.53,9.18c.19.04.37.08.55.13.18.05.35.12.51.21v.4h-3.59v-.4c.19-.07.38-.14.57-.19.19-.06.38-.1.57-.14l-.94-2.55h-3.31l-.91,2.55c.39.06.79.17,1.2.33v.4h-.02ZM154.63,104.15h2.8l-1.09-2.95-.26-1.2h-.03l-.35,1.23-1.07,2.93h0Z"/>
    <path d="M173.45,108.17h-3.92v-.4c.2-.07.41-.14.62-.19s.43-.1.68-.14v-8.29h-2.13l-.74,1.99h-.35c-.03-.19-.05-.4-.07-.63s-.04-.48-.05-.72-.03-.49-.04-.72c0-.24-.01-.45-.01-.63h8.1c0,.19,0,.4-.01.63,0,.23-.02.47-.04.72-.01.25-.03.49-.04.72-.01.24-.04.45-.06.65h-.37l-.73-1.99h-2.12v8.29c.24.05.47.09.68.14s.41.11.61.19v.4-.02Z"/>
    <path d="M189.31,108.17h-3.92v-.4c.2-.07.41-.14.62-.19s.43-.1.68-.14v-8.29h-2.13l-.74,1.99h-.35c-.03-.19-.05-.4-.07-.63s-.04-.48-.05-.72-.03-.49-.04-.72c0-.24-.01-.45-.01-.63h8.1c0,.19,0,.4-.01.63,0,.23-.02.47-.04.72-.01.25-.03.49-.04.72-.01.24-.04.45-.06.65h-.37l-.73-1.99h-2.12v8.29c.24.05.47.09.68.14s.41.11.61.19v.4-.02Z"/>
    <path d="M199.65,103.29c0-.72.1-1.4.3-2.01.2-.62.49-1.15.86-1.6.38-.45.84-.8,1.39-1.05s1.17-.38,1.87-.38,1.32.13,1.87.38,1.01.6,1.39,1.05c.38.45.66.98.86,1.6s.3,1.29.3,2.01-.1,1.4-.3,2.01c-.2.62-.49,1.15-.86,1.6-.38.45-.84.8-1.39,1.05s-1.17.38-1.87.38-1.32-.12-1.87-.38c-.55-.25-1.01-.6-1.39-1.05-.38-.45-.66-.98-.86-1.6s-.3-1.29-.3-2.01ZM201.14,103.29c0,.59.06,1.15.19,1.68.12.52.31.98.56,1.37s.57.7.95.93c.38.23.83.34,1.35.34.47,0,.89-.11,1.24-.34s.64-.54.87-.93.4-.85.52-1.37.17-1.08.17-1.68-.06-1.15-.18-1.68c-.12-.52-.31-.98-.56-1.37s-.57-.7-.95-.93c-.38-.23-.83-.34-1.35-.34s-.95.11-1.3.34c-.36.23-.65.54-.87.93-.22.39-.39.85-.49,1.37s-.15,1.08-.15,1.68Z"/>
    <path d="M219.35,107.43c.21.05.42.1.61.15s.38.11.57.19v.4h-3.67v-.4c.2-.09.4-.16.58-.21.19-.05.37-.09.56-.13v-8.26c-.24-.05-.46-.1-.64-.16-.19-.06-.35-.12-.5-.19v-.4h1.23c.37,0,.78-.02,1.22-.06s.87-.06,1.29-.06c.46,0,.88.05,1.28.15s.74.26,1.03.49c.29.22.51.51.68.85.16.34.25.76.25,1.24,0,.68-.18,1.24-.54,1.69s-.85.77-1.46.96c.4.63.82,1.26,1.25,1.88.44.62.89,1.24,1.37,1.85l.76.4v.35h-1.7l-.53-.39c-.26-.33-.5-.64-.71-.95s-.41-.63-.6-.95-.36-.65-.52-.98c-.16-.33-.33-.68-.5-1.05h-1.31v3.58h0ZM220.29,99.02c-.22,0-.41,0-.55.01-.14,0-.28.03-.4.06v4.14h1c.64,0,1.15-.2,1.53-.61.38-.41.56-.94.56-1.61s-.2-1.19-.6-1.51c-.4-.32-.92-.48-1.55-.48h0Z"/>
    <path d="M239.36,98.41h3.01v.4c-.39.26-.77.45-1.14.56v8.96h-.79l-5.06-7.68-.54-1.09h-.04l.12,1.09v6.62c.38.1.74.27,1.07.49v.4h-3.01v-.4c.17-.1.35-.19.54-.27s.39-.15.61-.22v-7.98c-.19-.07-.37-.15-.55-.24-.18-.08-.35-.17-.51-.25v-.39h2.36l4.39,6.62.64,1.2h.06l-.07-1.2v-5.66c-.2-.08-.38-.17-.56-.27-.18-.09-.35-.19-.51-.29v-.4h-.02Z"/>
    <path d="M257.03,98.41c0,.37-.03.75-.05,1.12-.02.38-.06.75-.1,1.14h-.36l-.57-1.53h-3.04v3.69h2.27l.54-1.03h.35c.06.92.06,1.86,0,2.81h-.35l-.54-1.06h-2.27v3.89h3.21l.68-1.67h.35c.06.39.11.79.14,1.18.03.4.03.8.01,1.21h-6.87v-.4c.33-.15.71-.26,1.14-.33v-8.26c-.19-.04-.38-.09-.57-.15s-.39-.13-.57-.2v-.4h6.61-.01Z"/>
    <path d="M271.27,98.41h3.07v.4c-.35.18-.71.29-1.06.35l-2.63,4.85v3.41c.36.05.72.16,1.06.33v.4h-3.54v-.4c.33-.17.72-.28,1.14-.33v-3.4l-2.81-4.86c-.21-.04-.41-.09-.59-.15-.18-.06-.36-.13-.54-.2v-.4h3.69v.4c-.14.06-.3.11-.47.17s-.38.12-.6.17l2.29,4.1,2.15-4.1c-.21-.05-.42-.1-.61-.16s-.37-.12-.54-.19v-.4h-.01Z"/>
    <path d="M295.3,108.17h-3.09v-.4c.33-.15.67-.26,1-.33l3.53-9.18h.4l3.53,9.18c.19.04.37.08.55.13.18.05.35.12.51.21v.4h-3.59v-.4c.19-.07.38-.14.57-.19.19-.06.38-.1.57-.14l-.94-2.55h-3.31l-.91,2.55c.39.06.79.17,1.2.33v.4h-.02ZM295.3,104.15h2.8l-1.09-2.95-.26-1.2h-.03l-.35,1.23-1.07,2.93h0Z"/>
    <path d="M314.12,108.17h-3.92v-.4c.2-.07.41-.14.62-.19s.43-.1.68-.14v-8.29h-2.13l-.74,1.99h-.35c-.03-.19-.05-.4-.07-.63s-.04-.48-.05-.72-.03-.49-.04-.72c0-.24-.01-.45-.01-.63h8.1c0,.19,0,.4-.01.63,0,.23-.02.47-.04.72-.01.25-.03.49-.04.72-.01.24-.04.45-.06.65h-.37l-.73-1.99h-2.12v8.29c.24.05.47.09.68.14s.41.11.61.19v.4-.02Z"/>
    <path d="M334.74,98.41h3.82v.4c-.22.08-.45.16-.67.22s-.45.1-.67.13v8.28h3.21l.82-2.24h.36c.03.2.05.42.08.68.02.26.04.52.06.79.01.27.02.54.02.8s0,.49-.01.7h-7.01v-.4c.22-.1.43-.18.61-.22.19-.05.36-.08.53-.11v-8.26c-.21-.04-.42-.09-.61-.15s-.37-.13-.53-.2v-.42Z"/>
    <path d="M352.32,108.17h-3.09v-.4c.33-.15.67-.26,1-.33l3.53-9.18h.4l3.53,9.18c.19.04.37.08.55.13.18.05.35.12.51.21v.4h-3.59v-.4c.19-.07.38-.14.57-.19.19-.06.38-.1.57-.14l-.94-2.55h-3.31l-.91,2.55c.39.06.79.17,1.2.33v.4h-.02ZM352.31,104.15h2.8l-1.09-2.95-.26-1.2h-.03l-.35,1.23-1.07,2.93h0Z"/>
    <path d="M375.82,99.16c-.2-.03-.39-.07-.59-.13-.19-.06-.4-.13-.61-.22v-.4h3.12v.4c-.32.14-.65.26-1,.35l-2.33,9-.86.17-2.24-7.58-2.2,7.41-.85.17-2.47-9.17c-.19-.05-.37-.1-.54-.15-.18-.06-.35-.12-.52-.2v-.4h3.62v.4c-.18.06-.36.13-.54.19-.19.06-.39.11-.6.16l1.38,5.62.31,1.81h.03l.49-1.84,1.88-6.34h.47l2.02,6.34.4,1.81h.03l.32-1.84,1.28-5.56h0Z"/>
  </g>
</svg>